# Blender 5.0.0
# www.blender.org
mtllib computer-screen.mtl
o Cube.002
v -0.714286 -0.537675 -0.865991
v -0.428571 -0.537675 -0.865991
v -0.142857 -0.537675 -0.865991
v 0.142857 -0.537675 -0.865991
v 0.428571 -0.537675 -0.865991
v 0.714286 -0.537675 -0.865991
v -0.714286 -0.253068 -0.891115
v -0.428571 -0.253068 -0.891115
v -0.142857 -0.253068 -0.891115
v 0.142857 -0.253068 -0.891115
v 0.428571 -0.253068 -0.891115
v 0.714286 -0.253068 -0.891115
v -0.714286 0.031540 -0.916239
v -0.428571 0.031540 -0.916239
v -0.142857 0.031540 -0.916239
v 0.142857 0.031540 -0.916239
v 0.428571 0.031540 -0.916239
v 0.714286 0.031540 -0.916239
v -0.714286 0.316147 -0.941362
v -0.428571 0.316147 -0.941362
v -0.142857 0.316147 -0.941362
v 0.142857 0.316147 -0.941362
v 0.428571 0.316147 -0.941362
v 0.714286 0.316147 -0.941362
v -0.714286 0.600755 -0.966486
v -0.428571 0.600755 -0.966486
v -0.142857 0.600755 -0.966486
v 0.142857 0.600755 -0.966486
v 0.428571 0.600755 -0.966486
v 0.714286 0.600755 -0.966486
v -0.714286 0.885362 -0.991610
v -0.428571 0.885362 -0.991610
v -0.142857 0.885362 -0.991610
v 0.142857 0.885362 -0.991610
v 0.428571 0.885362 -0.991610
v 0.714286 0.885362 -0.991610
vn -0.0000 -0.0879 -0.9961
vt 0.410714 0.285714
vt 0.446429 0.285714
vt 0.446429 0.321429
vt 0.410714 0.321429
vt 0.446429 0.357143
vt 0.410714 0.357143
vt 0.446429 0.392857
vt 0.410714 0.392857
vt 0.446429 0.428571
vt 0.410714 0.428571
vt 0.446429 0.464286
vt 0.410714 0.464286
vt 0.482143 0.285714
vt 0.482143 0.321429
vt 0.482143 0.357143
vt 0.482143 0.392857
vt 0.482143 0.428571
vt 0.482143 0.464286
vt 0.517857 0.285714
vt 0.517857 0.321429
vt 0.517857 0.357143
vt 0.517857 0.392857
vt 0.517857 0.428571
vt 0.517857 0.464286
vt 0.553571 0.285714
vt 0.553571 0.321429
vt 0.553571 0.357143
vt 0.553571 0.392857
vt 0.553571 0.428571
vt 0.553571 0.464286
vt 0.589286 0.285714
vt 0.589286 0.321429
vt 0.589286 0.357143
vt 0.589286 0.392857
vt 0.589286 0.428571
vt 0.589286 0.464286
s 0
f 1/1/1 7/2/1 8/3/1 2/4/1
f 2/4/1 8/3/1 9/5/1 3/6/1
f 3/6/1 9/5/1 10/7/1 4/8/1
f 4/8/1 10/7/1 11/9/1 5/10/1
f 5/10/1 11/9/1 12/11/1 6/12/1
f 7/2/1 13/13/1 14/14/1 8/3/1
f 8/3/1 14/14/1 15/15/1 9/5/1
f 9/5/1 15/15/1 16/16/1 10/7/1
f 10/7/1 16/16/1 17/17/1 11/9/1
f 11/9/1 17/17/1 18/18/1 12/11/1
f 13/13/1 19/19/1 20/20/1 14/14/1
f 14/14/1 20/20/1 21/21/1 15/15/1
f 15/15/1 21/21/1 22/22/1 16/16/1
f 16/16/1 22/22/1 23/23/1 17/17/1
f 17/17/1 23/23/1 24/24/1 18/18/1
f 19/19/1 25/25/1 26/26/1 20/20/1
f 20/20/1 26/26/1 27/27/1 21/21/1
f 21/21/1 27/27/1 28/28/1 22/22/1
f 22/22/1 28/28/1 29/29/1 23/23/1
f 23/23/1 29/29/1 30/30/1 24/24/1
f 25/25/1 31/31/1 32/32/1 26/26/1
f 26/26/1 32/32/1 33/33/1 27/27/1
f 27/27/1 33/33/1 34/34/1 28/28/1
f 28/28/1 34/34/1 35/35/1 29/29/1
f 29/29/1 35/35/1 36/36/1 30/30/1
